<svg width="40" height="40" viewBox="0 0 40 40" fill="none" xmlns="http://www.w3.org/2000/svg">
<g id="&#230;&#150;&#135;&#230;&#161;&#163;">
<path id="Vector" d="M28.2074 10.905H33.9399L26.7299 3.40496V9.42996C26.7299 10.245 27.3924 10.905 28.2049 10.905H28.2074ZM28.2074 12.54C27.3828 12.5393 26.5921 12.2114 26.0091 11.6283C25.426 11.0452 25.0981 10.2546 25.0974 9.42996V1.83496H7.52492C5.94992 1.83496 4.66992 3.11496 4.66992 4.68996V35.095C4.66992 36.67 5.94992 37.95 7.52492 37.95H32.5324C34.1074 37.95 35.3874 36.6675 35.3874 35.095V12.54H28.2049H28.2074ZM26.9999 24.25H20.9999V30.25C20.9999 30.5152 20.8946 30.7695 20.707 30.9571C20.5195 31.1446 20.2651 31.25 19.9999 31.25C19.7347 31.25 19.4804 31.1446 19.2928 30.9571C19.1053 30.7695 18.9999 30.5152 18.9999 30.25V24.25H12.9999C12.7347 24.25 12.4804 24.1446 12.2928 23.9571C12.1053 23.7695 11.9999 23.5152 11.9999 23.25C11.9999 22.9847 12.1053 22.7304 12.2928 22.5429C12.4804 22.3553 12.7347 22.25 12.9999 22.25H18.9999V16.25C18.9999 15.9847 19.1053 15.7304 19.2928 15.5429C19.4804 15.3553 19.7347 15.25 19.9999 15.25C20.2651 15.25 20.5195 15.3553 20.707 15.5429C20.8946 15.7304 20.9999 15.9847 20.9999 16.25V22.25H26.9999C27.2651 22.25 27.5195 22.3553 27.707 22.5429C27.8946 22.7304 27.9999 22.9847 27.9999 23.25C27.9999 23.5152 27.8946 23.7695 27.707 23.9571C27.5195 24.1446 27.2651 24.25 26.9999 24.25Z" fill="#0A4CDE"/>
</g>
</svg>
