<?xml version="1.0" standalone="no"?><!DOCTYPE svg PUBLIC "-//W3C//DTD SVG 1.1//EN" "http://www.w3.org/Graphics/SVG/1.1/DTD/svg11.dtd"><svg t="1710221442744" class="icon" viewBox="0 0 1024 1024" version="1.1" xmlns="http://www.w3.org/2000/svg" p-id="8210" xmlns:xlink="http://www.w3.org/1999/xlink" width="200" height="200"><path d="M760.685714 671.085714c10.971429 10.971429 27.428571 10.971429 38.4 0s10.971429-27.428571 0-38.4c-38.4-38.4-91.428571-65.828571-151.771428-78.628571-12.8-3.657143-27.428571-5.485714-40.228572-9.142857 85.942857-47.542857 142.628571-144.457143 129.828572-252.342857-12.8-118.857143-106.057143-213.942857-223.085715-226.742858-153.6-16.457143-285.257143 104.228571-285.257142 254.171429 0 96.914286 54.857143 182.857143 135.314285 224.914286-16.457143 3.657143-32.914286 7.314286-47.542857 12.8-149.942857 45.714286-256 188.342857-256 345.6V932.571429c0 14.628571 12.8 27.428571 27.428572 27.428571s27.428571-12.8 27.428571-27.428571v-29.257143c0-133.485714 87.771429-254.171429 215.771429-292.571429 47.542857-16.457143 96.914286-21.942857 159.085714-21.942857 51.2 0 96.914286 5.485714 144.457143 18.285714 53.028571 9.142857 95.085714 32.914286 126.171428 64z m-475.428571-351.085714c0-111.542857 89.6-201.142857 201.142857-201.142857s201.142857 89.6 201.142857 201.142857-89.6 201.142857-201.142857 201.142857-201.142857-89.6-201.142857-201.142857zM630.857143 808.228571c0 14.628571 12.8 27.428571 27.428571 27.428572h274.285715c14.628571 0 27.428571-12.8 27.428571-27.428572s-12.8-27.428571-27.428571-27.428571H658.285714c-14.628571 0-27.428571 10.971429-27.428571 27.428571zM932.571429 908.8H658.285714c-14.628571 0-27.428571 12.8-27.428571 27.428571s12.8 27.428571 27.428571 27.428572h274.285715c14.628571 0 27.428571-12.8 27.428571-27.428572s-12.8-27.428571-27.428571-27.428571z" p-id="8211"></path></svg>