<svg width="16" height="16" viewBox="0 0 16 16" fill="none" xmlns="http://www.w3.org/2000/svg">
<g id="icon&#229;&#141;&#160;&#228;&#189;&#141;&#231;&#172;&#166;">
<path id="Vector" d="M14.5749 10.7688C14.5749 11.4078 14.0468 11.9312 13.403 11.9312H2.59521C1.95146 11.9312 1.42334 11.4078 1.42334 10.7688C1.42334 10.1297 1.95146 9.60625 2.59521 9.60625H2.78271V5.62187C2.78271 3.075 5.13428 1 8.00303 1C10.8733 1 13.2249 3.08437 13.2249 5.62187V9.59688H13.4124C14.0483 9.59688 14.5749 10.1203 14.5749 10.7688ZM8.15615 15C9.2999 15 10.239 14.1656 10.3999 13.075H5.92178C6.07334 14.1656 7.02178 15 8.15615 15Z" fill="#BBBDBF"/>
</g>
</svg>
